<svg width="48" height="48" viewBox="0 0 48 48" fill="none" xmlns="http://www.w3.org/2000/svg">
<path fill-rule="evenodd" clip-rule="evenodd" d="M19.7359 4.4224C21.0878 3.86242 22.5368 3.57422 24 3.57422C25.4632 3.57422 26.9122 3.86242 28.264 4.4224C29.616 4.98236 30.8442 5.80312 31.879 6.8378C32.9136 7.87248 33.7344 9.10082 34.2944 10.4527C34.8544 11.8046 35.1426 13.2535 35.1426 14.7168V20H40V44H8V20H12.8574V14.7168C12.8574 13.2535 13.1456 11.8046 13.7056 10.4527C14.2656 9.10082 15.0863 7.87248 16.121 6.8378C17.1557 5.80312 18.384 4.98236 19.7359 4.4224ZM16.8574 14.7168C16.8574 13.7788 17.0422 12.85 17.4011 11.9834C17.7601 11.1169 18.2862 10.3295 18.9494 9.66622C19.6127 9.00298 20.4 8.47686 21.2666 8.11792C22.1332 7.75896 23.062 7.57422 24 7.57422C24.938 7.57422 25.8668 7.75896 26.7334 8.11792C27.5998 8.47686 28.3872 9.00298 29.0506 9.66622C29.7138 10.3295 30.24 11.1169 30.5988 11.9834C30.9578 12.85 31.1426 13.7788 31.1426 14.7168V20H16.8574V14.7168ZM12 24H36V40H12V24Z" fill="currentColor"/>
</svg>
