<svg width="22" height="19" viewBox="0 0 22 19" fill="none" xmlns="http://www.w3.org/2000/svg">
<path d="M18.5995 13.9333H14.7995C13.9094 13.9331 13.0352 14.1691 12.2662 14.6173V5.06667C12.2662 4.39478 12.5331 3.75042 13.0082 3.27533C13.4833 2.80024 14.1277 2.53333 14.7995 2.53333H16.0662V0H14.7995C14.0799 0.00130661 13.3688 0.155896 12.7136 0.453477C12.0584 0.751057 11.4741 1.1848 10.9995 1.72583C10.525 1.1848 9.94072 0.751057 9.2855 0.453477C8.63027 0.155896 7.91918 0.00130661 7.19954 0H0.866211V13.9333C0.866211 14.6052 1.13311 15.2496 1.60821 15.7247C2.0833 16.1998 2.72766 16.4667 3.39954 16.4667H7.19954C7.87143 16.4667 8.51579 16.7336 8.99088 17.2087C9.46597 17.6838 9.73288 18.3281 9.73288 19H12.2662C12.2662 18.3281 12.5331 17.6838 13.0082 17.2087C13.4833 16.7336 14.1277 16.4667 14.7995 16.4667H18.5995C19.2714 16.4667 19.9158 16.1998 20.3909 15.7247C20.866 15.2496 21.1329 14.6052 21.1329 13.9333V12.5176H18.5995V13.9333ZM7.19954 13.9333H3.39954V2.53333H7.19954C7.87143 2.53333 8.51579 2.80024 8.99088 3.27533C9.46597 3.75042 9.73288 4.39478 9.73288 5.06667V14.6142C8.96342 14.1674 8.08931 13.9324 7.19954 13.9333Z" fill="currentColor"/>
<path d="M21.1329 4.28433H18.5996V10.6177H21.1329V4.28433Z" fill="currentColor"/>
<path d="M19.8662 2.53333C20.5658 2.53333 21.1329 1.96623 21.1329 1.26667C21.1329 0.567106 20.5658 0 19.8662 0C19.1667 0 18.5996 0.567106 18.5996 1.26667C18.5996 1.96623 19.1667 2.53333 19.8662 2.53333Z" fill="currentColor"/>
</svg>
